<svg xmlns="http://www.w3.org/2000/svg" xmlns:xlink="http://www.w3.org/1999/xlink" width="1080" zoomAndPan="magnify" viewBox="0 0 810 809.999993" height="1080" preserveAspectRatio="xMidYMid meet" version="1.0"><defs><clipPath id="7dd3425f02"><path d="M 283 0 L 810 0 L 810 527 L 283 527 Z M 283 0 " clip-rule="nonzero"/></clipPath><clipPath id="962975bb86"><path d="M 0 0 L 527 0 L 527 527 L 0 527 Z M 0 0 " clip-rule="nonzero"/></clipPath><clipPath id="54ada61f20"><path d="M 0 284 L 527 284 L 527 810 L 0 810 Z M 0 284 " clip-rule="nonzero"/></clipPath><clipPath id="95b4250ad9"><path d="M 283 284 L 810 284 L 810 810 L 283 810 Z M 283 284 " clip-rule="nonzero"/></clipPath><clipPath id="26f341bb43"><path d="M 455 194 L 810 194 L 810 553 L 455 553 Z M 455 194 " clip-rule="nonzero"/></clipPath><clipPath id="908b29a3f6"><path d="M 261 0 L 620 0 L 620 356 L 261 356 Z M 261 0 " clip-rule="nonzero"/></clipPath><clipPath id="0c520d2309"><path d="M 0 258 L 356 258 L 356 617 L 0 617 Z M 0 258 " clip-rule="nonzero"/></clipPath><clipPath id="f1b09ebfb0"><path d="M 189 459 L 548 459 L 548 810 L 189 810 Z M 189 459 " clip-rule="nonzero"/></clipPath><clipPath id="7f358b70c3"><rect x="0" width="810" y="0" height="810"/></clipPath></defs><g transform="matrix(1, 0, 0, 1, 0, 0.000000000000039746)"><g clip-path="url(#7f358b70c3)"><g clip-path="url(#7dd3425f02)"><path stroke-linecap="butt" transform="matrix(2.048585, 2.048585, -2.048585, 2.048585, 405.203527, 0.00937921)" fill="none" stroke-linejoin="miter" d="M 0.000472868 3.499654 L 197.572035 3.499654 " stroke="#fdc63b" stroke-width="7" stroke-opacity="1" stroke-miterlimit="4"/></g><g clip-path="url(#962975bb86)"><path stroke-linecap="butt" transform="matrix(2.048585, -2.048585, 2.048585, 2.048585, 0.536746, 404.731176)" fill="none" stroke-linejoin="miter" d="M -0.000215598 3.500331 L 197.354924 3.499378 " stroke="#fdc63b" stroke-width="7" stroke-opacity="1" stroke-miterlimit="4"/></g><g clip-path="url(#54ada61f20)"><path stroke-linecap="butt" transform="matrix(-2.048585, -2.048585, 2.048585, -2.048585, 404.805223, 810.527979)" fill="none" stroke-linejoin="miter" d="M -0.000667568 3.499963 L 197.279153 3.499963 " stroke="#fdc63b" stroke-width="7" stroke-opacity="1" stroke-miterlimit="4"/></g><g clip-path="url(#95b4250ad9)"><path stroke-linecap="butt" transform="matrix(2.050101, -2.047068, 2.047068, 2.050101, 390.871069, 796.1929)" fill="none" stroke-linejoin="miter" d="M 0.000100849 3.499581 L 197.424883 3.500272 " stroke="#fdc63b" stroke-width="7" stroke-opacity="1" stroke-miterlimit="4"/></g><path stroke-linecap="butt" transform="matrix(-2.048585, -2.048585, 2.048585, -2.048585, 535.839577, 680.112226)" fill="none" stroke-linejoin="miter" d="M 0.000630576 3.499746 L 197.279498 3.500699 " stroke="#fdc63b" stroke-width="7" stroke-opacity="1" stroke-miterlimit="4"/><path stroke-linecap="butt" transform="matrix(-2.048585, -2.048585, 2.048585, -2.048585, 665.815506, 549.696448)" fill="none" stroke-linejoin="miter" d="M 0.0000575029 3.499482 L 197.278925 3.500435 " stroke="#fdc63b" stroke-width="7" stroke-opacity="1" stroke-miterlimit="4"/><path stroke-linecap="butt" transform="matrix(2.048585, -2.048585, 2.048585, 2.048585, 229.451536, 631.750188)" fill="none" stroke-linejoin="miter" d="M -0.000519624 3.50028 L 195.471651 3.50028 " stroke="#fdc63b" stroke-width="7" stroke-opacity="1" stroke-miterlimit="4"/><g clip-path="url(#26f341bb43)"><path stroke-linecap="butt" transform="matrix(2.048585, -2.048585, 2.048585, 2.048585, 562.643423, 430.43419)" fill="none" stroke-linejoin="miter" d="M -0.000537346 3.500063 L 62.687542 3.500063 " stroke="#fdc63b" stroke-width="7" stroke-opacity="1" stroke-miterlimit="4"/></g><g clip-path="url(#908b29a3f6)"><path stroke-linecap="butt" transform="matrix(2.048585, -2.048585, 2.048585, 2.048585, 368.717476, 233.332758)" fill="none" stroke-linejoin="miter" d="M -0.000465148 3.500072 L 62.687614 3.500072 " stroke="#fdc63b" stroke-width="7" stroke-opacity="1" stroke-miterlimit="4"/></g><path stroke-linecap="butt" transform="matrix(2.048585, -2.048585, 2.048585, 2.048585, 432.928134, 297.543432)" fill="none" stroke-linejoin="miter" d="M -0.000461047 3.500204 L 62.687618 3.500204 " stroke="#fdc63b" stroke-width="7" stroke-opacity="1" stroke-miterlimit="4"/><g clip-path="url(#0c520d2309)"><path stroke-linecap="butt" transform="matrix(2.048585, -2.048585, 2.048585, 2.048585, 105.630833, 494.644915)" fill="none" stroke-linejoin="miter" d="M -0.000376667 3.500328 L 62.687703 3.500328 " stroke="#fdc63b" stroke-width="7" stroke-opacity="1" stroke-miterlimit="4"/></g><path stroke-linecap="butt" transform="matrix(2.048585, -2.048585, 2.048585, 2.048585, 165.241666, 566.025688)" fill="none" stroke-linejoin="miter" d="M -0.000276853 3.499516 L 62.687803 3.499516 " stroke="#fdc63b" stroke-width="7" stroke-opacity="1" stroke-miterlimit="4"/><g clip-path="url(#f1b09ebfb0)"><path stroke-linecap="butt" transform="matrix(2.048585, -2.048585, 2.048585, 2.048585, 297.336697, 695.962953)" fill="none" stroke-linejoin="miter" d="M 0.000306662 3.500214 L 62.688386 3.500214 " stroke="#fdc63b" stroke-width="7" stroke-opacity="1" stroke-miterlimit="4"/></g><path stroke-linecap="butt" transform="matrix(-2.048585, -2.048585, 2.048585, -2.048585, 596.265214, 615.301165)" fill="none" stroke-linejoin="miter" d="M -0.00000676132 3.499179 L 79.747292 3.500132 " stroke="#fdc63b" stroke-width="7" stroke-opacity="1" stroke-miterlimit="4"/></g></g></svg>